<svg width="40" height="40" viewBox="0 0 40 40" fill="none" xmlns="http://www.w3.org/2000/svg">
<path d="M2.75 8.96875V9.35679L3.01174 9.64327L16.4881 24.3931C16.4882 24.3932 16.4883 24.3932 16.4883 24.3933C17.4615 25.4588 18.7038 26.0469 20.0039 26.0469C21.3041 26.0469 22.5465 25.4587 23.5197 24.3931L23.5197 24.3931L36.9885 9.64306L37.25 9.35663V8.96875V6.66667C37.25 6.01102 37.0502 5.37941 36.6828 4.88958C36.316 4.40056 35.7316 4 35 4H5C4.26839 4 3.68396 4.40056 3.31719 4.88958C2.94982 5.37941 2.75 6.01102 2.75 6.66667V8.96875ZM4.48836 14.7631L2.75 12.8599V15.4375V33.3333C2.75 33.989 2.94982 34.6206 3.31719 35.1104C3.68396 35.5994 4.26839 36 5 36H35C35.7316 36 36.316 35.5994 36.6828 35.1104C37.0502 34.6206 37.25 33.989 37.25 33.3333V15.4375V12.8599L35.5116 14.7631L24.4182 26.9086C23.0836 28.3683 21.5116 29.0443 19.9971 29.0443C18.4827 29.0443 16.9131 28.3685 15.5827 26.9095L15.5821 26.9089L4.48836 14.7631ZM1 6.66667C1 5.02416 1.50206 3.57277 2.26582 2.55443C3.02961 1.53604 4.00722 1 5 1H35C35.9928 1 36.9704 1.53604 37.7342 2.55443C38.4979 3.57277 39 5.02416 39 6.66667V33.3333C39 34.9758 38.4979 36.4272 37.7342 37.4456C36.9704 38.464 35.9928 39 35 39H5C4.00722 39 3.02961 38.464 2.26582 37.4456C1.50206 36.4272 1 34.9758 1 33.3333V6.66667Z" stroke="url(#paint0_linear_38_115)" stroke-width="2"/>
<defs>
<linearGradient id="paint0_linear_38_115" x1="20" y1="0" x2="39.9644" y2="47.0618" gradientUnits="userSpaceOnUse">
<stop stop-color="#081C65"/>
<stop offset="1" stop-color="#13ADDF"/>
</linearGradient>
</defs>
</svg>
